<svg xmlns="http://www.w3.org/2000/svg" width="400" height="200" style="border:dashed 2px #aaa"><path fill="#faa507" d="M30.344 103.164l-.056.896q0 1.82 1.96 1.82 1.624 0 3.276-1.12t1.652-2.268-1.344-1.932q-.896-.532-2.8-.532-2.828 0-6.314 1.344t-6.538 4.312q-4.004 3.92-4.004 7.196 0 1.932 1.47 3.108t3.85 1.176q3.304 0 7.672-2.492 3.64-2.044 5.46-4.34l.812-1.204q-.504 0-4.172.294t-4.2.42-.868.126q-.924 0-.924-.448 0-.7 2.128-1.162t7.196-.462 6.692.392q.252.056.252.14 0 .308-1.932.448-2.408.196-2.464.196-2.856 3.752-7.392 11.592-.252.448-.49.448t-.238-.364q0-.98 1.568-3.78l1.96-3.668q-1.792 1.54-4.564 2.884-3.612 1.708-6.818 1.708t-4.9-1.386-1.694-3.71q0-4.284 5.18-8.708 2.604-2.24 6.3-3.724t6.482-1.484 4.27 1.092q1.148.896 1.148 2.016 0 1.596-1.974 3.066t-3.906 1.47q-2.604 0-2.604-2.996 0-1.148.476-1.148.392 0 .392.784zm10.505 14q-.308 0-.56-.084-1.792-.504-1.792-2.016 0-1.96 2.464-4.536t4.424-2.576q.644 0 1.05.35t.406.854q0 1.568-2.366 2.996t-3.85 1.428q-.224 0-.392-.056-.42.756-.42 1.596 0 1.456 1.386 1.456t3.598-1.876q1.708-1.372 2.912-2.912.252-.336.434-.336t.182.168-.224.476q-1.512 1.988-3.64 3.528t-3.612 1.54zm5.292-8.064q0-.336-.714-.336t-2.03 1.092q-1.764 1.456-2.744 3.052.168.056.364.056 1.064 0 2.842-1.134t2.226-2.478q.056-.14.056-.252zm9.021-1.316l4.032-.056.084.084q0 .252-3.486.7t-3.766.532q-.532.476-1.96 2.842t-1.428 3.458q0 1.036 1.428 1.036.672 0 1.764-.42t1.68-.784q1.568-.98 3.36-2.884.392-.392.532-.392.084 0 .084.168t-.42.672q-1.456 1.792-3.276 2.884-2.184 1.344-4.172 1.344-.868 0-1.414-.378t-.546-1.526 1.008-3.15 1.54-2.982q-.392.084-.672.084-.812 0-.812-.644 0-.476.672-.672l.252-.028h1.624q.504-.644 1.148-1.484.784-1.008 1.064-1.008t.7.224.42.532-1.344 1.82q.728.028 1.904.028zm35.733-3.5q0 1.428-1.428 3.136t-4.326 2.772-5.628 1.064-4.326-.7q-3.528 5.18-4.592 6.244-3.024 3.024-7.224 3.024-2.38 0-3.57-1.106t-1.19-2.87q0-2.436 1.96-4.592 2.156-2.38 5.432-2.38 1.344 0 2.268.616t.924 1.876q0 .84-.952 2.016t-1.176 1.176q-.056 0-.056-.112t.084-.224q.896-1.316.896-2.422t-.686-1.708-1.694-.602q-2.352 0-4.158 2.142t-1.806 4.326q0 1.4.882 2.268t2.73.868q3.444 0 5.908-2.324 1.428-1.344 2.884-3.92l2.436-4.396q1.792-2.884 4.172-8.568h-.504q-3.78 0-7.588.826t-5.768 2.366q-.84.644-.84 1.26t.658.994 1.554.378 2.226-.35 2.002-.938q.28-.224.392-.224.224 0 .084.224-1.008 1.176-3.052 1.764-1.26.364-2.492.364t-2.016-.546-.784-1.484 1.008-1.89q1.904-1.848 6.804-2.744 3.472-.616 7.98-.616h.756q.616-.532 1.12-.532t.504.392l-.028.196q4.34.308 7.028 1.456 3.192 1.344 3.192 3.5zm-1.316-.28q0-1.764-2.856-2.884-2.492-.98-6.244-1.176l-.896 2.8q-1.064 2.632-4.088 7.336.28.14.952.308 1.12.196 1.736.196 2.128 0 4.9-.882t4.634-2.576 1.862-3.122zm7.957 4.424l.392-.084q.308 0 .588.252t.28.392-1.736 2.702-1.736 3.57l.028.168q.14.644.616.644 1.456 0 5.32-4.816.084-.112.196-.112t.112.21-.252.546q-3.584 4.788-5.46 4.788-.252 0-.476-.084-1.232-.476-1.232-1.848 0-.476.112-.952l-1.736 1.68q-1.652 1.456-2.394 1.456t-1.414-.476q-.756-.56-.756-1.484 0-2.044 2.856-4.886t5.236-2.842q.924 0 1.232.644l.14.378.084.154zm-8.372 6.888q0 1.008.7 1.008 1.624 0 4.424-3.556l2.968-4.088q-.224-.392-.728-.392-1.708 0-4.536 2.646t-2.828 4.382zm16.357-7.364q.756 0 .756.588 0 .168-.084.336-2.52 3.5-3.024 5.292 6.524-6.524 7.924-6.524l.252-.028q.784 0 .784.7 0 .14-.056.28t-1.12 1.512q-1.232 1.456-2.086 2.8t-.854 2.24.392.896q1.232 0 4.284-3.388l.196-.252q.42-.504.504-.504t.084.28-.392.728q-3.472 3.948-4.928 3.948-1.372 0-1.372-1.512t1.12-3.472l1.792-2.912q-1.904 1.4-3.388 3.066t-2.702 3.234-1.414 1.568q-.42 0-.658-.35t-.238-.868.364-1.386.924-2.1l-1.68 1.764q-.616.616-.77.616t-.154-.182.224-.406q1.036-1.036 1.792-1.988.728-.952 2.996-3.64.252-.336.532-.336zm17.197.364q3.136-5.096 4.368-5.096.196 0 .546.126t.35.378q0 .14-.14.364-2.24 2.744-3.332 4.116-3.304 4.172-3.64 5.992-.084.392-.084.784 0 1.26 1.036 1.26 2.072 0 5.404-3.836.28-.28.476-.322t.196.098-.168.336q-3.248 3.892-5.768 4.34-.14.028-.392.028-.868 0-1.302-.602t-.434-1.302q0-.784.308-1.736l-2.268 2.268q-1.54 1.428-2.422 1.428t-1.47-.476q-.7-.532-.7-1.484 0-2.044 2.856-4.886t5.236-2.842q.784 0 1.092.42.112.14.252.644zm-8.26 7q0 1.008.7 1.008 1.204 0 4.004-3.304.504-.588 3.36-4.396-.196-.336-.672-.336-1.736 0-4.564 2.646t-2.828 4.382zm20.263-9.674q.378.266.378.63t-.35.63-.77.266-.77-.308-.35-.7q0-.784 1.064-.784.42 0 .798.266zm-5.866 11.466q-1.428 0-1.428-1.848 0-1.512 1.652-4.186t2.66-2.702q.28 0 .63.224t.35.448q-.14.196-.336.434t-.42.518-.616.798-.756.994q-2.1 2.716-2.1 3.738t.7 1.022q.588 0 1.596-.644 2.352-1.456 3.724-3.192.504-.644.686-.644t.182.224-.644.896-1.022 1.064-.518.518-.518.476-.574.49-.56.42-.644.406-.644.294q-.588.252-1.4.252zm13.865-9.324l4.032-.056.084.084q0 .252-3.486.7t-3.766.532q-.532.476-1.96 2.842t-1.428 3.458q0 1.036 1.428 1.036.672 0 1.764-.42t1.68-.784q1.568-.98 3.36-2.884.392-.392.532-.392.084 0 .084.168t-.42.672q-1.456 1.792-3.276 2.884-2.184 1.344-4.172 1.344-.868 0-1.414-.378t-.546-1.526 1.008-3.15 1.54-2.982q-.392.084-.672.084-.812 0-.812-.644 0-.476.672-.672l.252-.028h1.624q.504-.644 1.148-1.484.784-1.008 1.064-1.008t.7.224.42.532-1.344 1.82q.728.028 1.904.028zm21.397-4.34q0 .224-.574.224t-1.148-.574-.574-1.4.504-1.498q1.064-1.456 3.556-2.072 1.792-.448 3.584-.448h.224q.252 0 1.372.084-.056-.364.294-.686t.798-.322q.84 0 .812 1.204 3.024.532 3.192 1.624l.028.42q0 .56-.322.56t-.21-.672q-.7-1.036-2.772-1.456-.504 2.268-5.264 9.856-3.164 4.984-7.364 8.344-4.816 3.808-9.072 3.808-2.604 0-3.864-1.316t-1.26-2.926.616-2.758q1.484-2.856 4.284-4.452 2.072-1.204 3.836-1.204 1.904 0 2.982.924t1.078 2.324q0 1.512-1.12 2.744-.7.784-1.12.784-.112 0-.112-.098t.084-.266q1.008-1.484 1.008-2.758t-.7-2.086q-.812-.868-2.198-.868t-3.094 1.12q-2.1 1.372-3.444 4.116-.7 1.372-.7 2.842t1.092 2.38 2.94.91q7.112 0 14.868-12.488 4.648-7.448 4.76-9.128-1.68-.084-1.764-.084-1.316 0-3.374.728t-2.674 1.792q-.252.42-.252.924t.532 1.12.532.728zm11.975 2.198q.378.266.378.63t-.35.63-.77.266-.77-.308-.35-.7q0-.784 1.064-.784.42 0 .798.266zm-5.866 11.466q-1.428 0-1.428-1.848 0-1.512 1.652-4.186t2.66-2.702q.28 0 .63.224t.35.448q-.14.196-.336.434t-.42.518-.616.798-.756.994q-2.1 2.716-2.1 3.738t.7 1.022q.588 0 1.596-.644 2.352-1.456 3.724-3.192.504-.644.686-.644t.182.224-.644.896-1.022 1.064-.518.518-.518.476-.574.49-.56.42-.644.406-.644.294q-.588.252-1.4.252z"/><path fill="#f7e7cd" d="M182.901 113.221q0-.342.041-.69t.041-.69v-.219q0-.424.349-.533t.718-.109q.424 0 .813.178t.39.684q.082.246.082.588v.643q0 .479-.335.663t-.896.185q-.396 0-.8-.144t-.403-.554zm5.546-4.594q0-.984.253-1.976t.786-1.777 1.36-1.278 1.948-.492q.479 0 1.053.116t1.06.369.82.656.335.991q0 .369-.191.492t-.506.123l-.096-.137-.267-.349-.362-.451-.369-.403q-.561-.561-1.053-.602h-.109q-.41 0-.766.246-.396.301-.704.848t-.513 1.162-.321 1.244-.116 1.039q0 .561.13 1.278t.438 1.36.779 1.08 1.21.438q.67 0 1.217-.328t1.046-.731.978-.725.984-.321q.219 0 .444.055t.226.287v.082q-.246.643-.834 1.135t-1.319.854-1.518.54-1.401.178q-1.148 0-2.017-.376t-1.442-1.032-.868-1.579-.294-2.017zm11.658.533q0-.779.198-1.606t.629-1.49 1.087-1.08 1.586-.417q.697 0 1.47.239t1.415.684 1.046 1.087.403 1.436q0 .957-.349 1.818t-.978 1.538-1.47 1.066-1.825.39q-.807 0-1.408-.294t-1.005-.786-.602-1.162-.198-1.422zm2.01-.027q0 .246.075.725t.226.937.39.793.581.308q.725-.082 1.196-.472t.766-.95.41-1.217.116-1.244q0-.752-.294-1.258t-.964-.82l.027.027.027-.027-.342-.082q-.137-.055-.335-.123t-.39-.301q-.533.191-.827.492t-.444.731-.185 1.032-.034 1.449zm8.383-3.657q-.034-.458.055-.841t.355-.622.854-.239q.137 0 .335.034t.39.089.321.164.13.301v1.545q.533-.615 1.162-.882t1.436-.267q.615 0 1.217.28t1.135.745.923 1.025.567 1.121q.109-.506.246-1.237t.403-1.401.704-1.148 1.162-.479q.779 0 1.313.561t.868 1.456.506 2.003.253 2.188.082 2.017v1.47q0 .164-.123.267t-.308.157-.383.068-.308.014q-.424 0-.772-.13t-.349-.663v-1.23l-.027-1.593-.096-1.709-.178-1.552-.28-1.121-.417-.438q-.342 0-.492.383t-.253.971-.157 1.244-.15 1.244-.308.964-.581.376q-.396 0-.697-.376t-.595-.937-.588-1.203-.649-1.203q-.355-.574-.766-.93-.369-.342-.834-.328h-.068q-.615.027-.964.444t-.533 1.019-.226 1.292-.041 1.21q0 .492.082 1.148.055.438.055.834l-.014.396q-.041.574-.308.964t-.991.39q-.273 0-.684-.055t-.547-.369q-.314-.561-.479-1.415t-.246-1.764-.096-1.805-.014-1.538q0-.451-.034-.909z"/></svg>